<svg width="158" height="43" viewBox="0 0 158 43" fill="none" xmlns="http://www.w3.org/2000/svg">
<path d="M141.681 25.6486C144.471 25.1385 148.894 26.5355 151.245 27.4877C151.609 27.6352 151.84 27.9917 151.84 28.3847V41.6009C151.84 42.1477 151.397 42.591 150.85 42.591H6.79178C6.24496 42.591 5.8017 42.1477 5.8017 41.6009V5.09552C5.8017 4.53096 6.28116 4.07907 6.84367 4.12697C21.0418 5.33602 21.0997 17.3892 23.5802 21.4704C26.12 25.6491 33.7394 27.042 38.819 26.3456C43.8986 25.6491 46.4384 23.5598 61.6772 25.6486C76.9159 27.7374 78.1858 29.8273 95.9644 20.7734C113.743 11.7196 121.362 22.8628 126.918 25.6486C132.474 28.4344 137.871 26.345 141.681 25.6486Z" fill="url(#paint0_radial_1_242)"/>
<g filter="url(#filter0_d_1_242)">
<path d="M151.84 27.7379C149.723 26.8093 144.728 25.0914 141.681 25.6486C137.871 26.345 132.474 28.4344 126.918 25.6486C121.362 22.8628 113.743 11.7196 95.9644 20.7734C78.1858 29.8273 76.9159 27.7374 61.6772 25.6486C46.4384 23.5598 43.8986 25.6491 38.819 26.3456C33.7394 27.042 26.12 25.6491 23.5802 21.4704C21.0404 17.2917 21.0405 4.75559 5.8017 4.05914" stroke="#D86661" stroke-width="1.48513" stroke-linecap="round"/>
</g>
<defs>
<filter id="filter0_d_1_242" x="0.108637" y="0.346292" width="157.424" height="35.065" filterUnits="userSpaceOnUse" color-interpolation-filters="sRGB">
<feFlood flood-opacity="0" result="BackgroundImageFix"/>
<feColorMatrix in="SourceAlpha" type="matrix" values="0 0 0 0 0 0 0 0 0 0 0 0 0 0 0 0 0 0 127 0" result="hardAlpha"/>
<feOffset dy="1.98018"/>
<feGaussianBlur stdDeviation="2.47522"/>
<feComposite in2="hardAlpha" operator="out"/>
<feColorMatrix type="matrix" values="0 0 0 0 0 0 0 0 0 0 0 0 0 0 0 0 0 0 0.25 0"/>
<feBlend mode="normal" in2="BackgroundImageFix" result="effect1_dropShadow_1_242"/>
<feBlend mode="normal" in="SourceGraphic" in2="effect1_dropShadow_1_242" result="shape"/>
</filter>
<radialGradient id="paint0_radial_1_242" cx="0" cy="0" r="1" gradientUnits="userSpaceOnUse" gradientTransform="translate(78.8208 23.3251) rotate(90.6532) scale(21.4199 77.4356)">
<stop stop-color="#E38E8B"/>
<stop offset="1" stop-color="#E69A97" stop-opacity="0"/>
</radialGradient>
</defs>
</svg>
