<svg width="39" height="39" viewBox="0 0 39 39" fill="none" xmlns="http://www.w3.org/2000/svg">
<circle cx="19.5" cy="19.5" r="19.5" fill="#ADD1DD" fill-opacity="0.5" style="fill:#ADD1DD;fill:color(display-p3 0.6784 0.8196 0.8667);fill-opacity:0.5;"/>
<path d="M20.7467 23.2512C21.0573 23.251 21.3675 23.2323 21.6758 23.1952C22.81 23.0891 23.8922 22.6666 24.8003 21.9757C26.6584 20.4792 26.9679 17.972 26.9679 17.6887C27.0147 17.5032 26.981 17.3066 26.875 17.1475C26.7421 17.0102 26.5577 16.9355 26.3672 16.9422C25.3545 16.8303 23.2333 16.9702 21.7222 18.1865C21.2126 18.6173 20.7847 19.1368 20.4588 19.7203V17.3311H20.7158C21.0262 17.3308 21.3364 17.3122 21.6449 17.2751C22.7888 17.1772 23.8824 16.7577 24.8002 16.0649C26.6583 14.5684 26.9678 12.0611 26.9678 11.7779C27.0147 11.5924 26.981 11.3956 26.8749 11.2365C26.7421 11.0991 26.5576 11.0247 26.3671 11.0312C25.3545 10.9193 23.2333 11.0592 21.7221 12.2755C20.953 12.951 20.3596 13.8058 19.9943 14.7646C19.6288 13.8058 19.0357 12.9512 18.2663 12.2757C16.7707 11.0594 14.6525 10.9194 13.6213 11.0314C13.4308 11.0249 13.2463 11.0991 13.1135 11.2365C13.0077 11.3956 12.9737 11.5924 13.0206 11.7779C13.0485 12.0611 13.3613 14.5777 15.1882 16.0649C16.1181 16.7667 17.2277 17.1874 18.387 17.2781C18.6955 17.3152 19.0057 17.3339 19.3161 17.3341H19.5731V19.7233C19.2472 19.14 18.819 18.6205 18.3097 18.1896C16.8141 16.9732 14.6959 16.8333 13.6647 16.9453C13.4742 16.9386 13.2898 17.0132 13.1569 17.1506C13.0509 17.3097 13.0172 17.5065 13.064 17.692C13.0919 17.9752 13.4047 20.4918 15.2316 21.9789C16.1494 22.6718 17.2431 23.0913 18.387 23.1889C18.6954 23.226 19.0057 23.2447 19.316 23.2449H19.5731V25.6341C19.2471 25.0508 18.819 24.5313 18.3097 24.1006C16.814 22.8843 14.6959 22.7443 13.6647 22.8563C13.4714 22.8312 13.2789 22.9082 13.1562 23.0605C13.0337 23.2129 12.9987 23.4182 13.064 23.6028C13.0918 23.886 13.4046 26.4026 15.2316 27.8897C16.1494 28.5827 17.243 29.0021 18.3869 29.1C18.6954 29.1371 19.0056 29.1557 19.316 29.1559H19.573V35.5334C19.573 35.791 19.781 36 20.0374 36C20.2941 36 20.5021 35.791 20.5021 35.5334V29.1526H20.7591C21.0695 29.1522 21.3797 29.1335 21.6879 29.0964C22.817 28.9907 23.8944 28.5717 24.8001 27.8864C26.6582 26.3899 26.9677 23.8827 26.9677 23.5995C27.0329 23.4148 26.9979 23.2095 26.8755 23.0572C26.7528 22.9049 26.5603 22.8274 26.367 22.8528C25.3544 22.7438 23.2332 22.8808 21.722 24.0971C21.2125 24.5278 20.7846 25.0475 20.4586 25.6308V23.2416C20.5731 23.2479 20.6601 23.2512 20.7467 23.2512ZM22.3384 18.896C23.577 17.8973 25.2679 17.7977 26.0265 17.832C25.8995 18.5848 25.4444 20.2368 24.2148 21.2322C22.9856 22.2279 21.2854 22.3272 20.5268 22.2962C20.6445 21.5588 21.1091 19.91 22.3384 18.9113V18.896ZM15.8355 21.2322C14.5969 20.2366 14.1509 18.5848 14.0238 17.832C14.7825 17.7977 16.4826 17.8973 17.7119 18.896C18.9414 19.8946 19.406 21.5588 19.5238 22.3118C18.7619 22.3428 17.065 22.2558 15.8355 21.2478V21.2322ZM15.8355 27.1431C14.5969 26.1475 14.1509 24.4956 14.0238 23.7428C14.7825 23.7086 16.4826 23.8082 17.7119 24.8068C18.9414 25.8055 19.406 27.4699 19.5238 28.2226C18.7619 28.2569 17.065 28.1667 15.8355 27.1587V27.1431ZM22.3384 24.8068C23.577 23.8081 25.2679 23.7085 26.0265 23.7428C25.8995 24.4956 25.4444 26.1477 24.2148 27.1431C22.9856 28.1387 21.2854 28.2414 20.5268 28.207C20.6445 27.4698 21.1091 25.8211 22.3384 24.8224V24.8068ZM22.3384 12.9851C23.577 11.9864 25.2679 11.8868 26.0265 11.9212C25.8995 12.674 25.4444 14.326 24.2148 15.3214C22.9856 16.317 21.2854 16.4164 20.5268 16.3853C20.6445 15.6482 21.1091 13.9994 22.3384 13.0007V12.9851ZM15.8355 15.3214C14.5969 14.3258 14.1509 12.674 14.0238 11.9212C14.7825 11.8869 16.4826 11.9865 17.7119 12.9851C18.9414 13.9838 19.406 15.6482 19.5238 16.401C18.7619 16.4322 17.065 16.345 15.8355 15.337V15.3214Z" fill="white" style="fill:white;fill-opacity:1;"/>
</svg>
