<svg width="39" height="39" viewBox="0 0 39 39" fill="none" xmlns="http://www.w3.org/2000/svg">
<circle cx="19.5" cy="19.5" r="19.5" fill="#FBD7BA" fill-opacity="0.5" style="fill:#FBD7BA;fill:color(display-p3 0.9843 0.8431 0.7294);fill-opacity:0.5;"/>
<path d="M27.6611 15.6048L28 15.5708V12.3194C28 11.9694 27.861 11.6338 27.6136 11.3864C27.3662 11.139 27.0307 11 26.6806 11H24.475L24.0998 11.0218V11.3994C24.1033 11.8729 23.8539 12.3123 23.4453 12.5522C23.037 12.792 22.5317 12.7957 22.1198 12.5618C21.7081 12.3281 21.4523 11.8924 21.4487 11.4188L21.4633 11.0023H10.3265H10.3267C9.97662 11.0023 9.64107 11.1413 9.39365 11.3887C9.14625 11.6363 9.00726 11.9719 9.00726 12.3218V21.4175L9.41392 21.3861H9.45749C9.77042 21.3861 10.0241 21.6397 10.0241 21.9526C10.0241 22.2654 9.7704 22.5191 9.45749 22.5191H9.40665L9 22.4877V28.666C9 29.0161 9.13898 29.3517 9.38639 29.5991C9.6338 29.8465 9.96934 29.9855 10.3194 29.9855H16.6673L16.6431 29.54V29.4795H16.643C16.6695 28.652 17.1263 27.8985 17.8476 27.4922C18.569 27.0858 19.4502 27.0858 20.1715 27.4922C20.8929 27.8985 21.3496 28.652 21.3761 29.4795V29.5376L21.3543 29.9855H26.6805C27.0306 29.9855 27.3662 29.8465 27.6136 29.5991C27.861 29.3517 28 29.0161 28 28.666V18.2751L27.6611 18.2411V18.2413C27.2201 18.1989 26.8293 17.9388 26.6203 17.5482C26.411 17.1576 26.411 16.6883 26.6203 16.2977C26.8293 15.9071 27.2201 15.647 27.6611 15.6048L27.6611 15.6048ZM27.2448 18.9288V28.6661C27.2434 28.9772 26.9916 29.229 26.6806 29.2303H22.1195C22.0317 28.1809 21.4205 27.2467 20.4942 26.7458C19.5679 26.2449 18.4515 26.2449 17.5254 26.7458C16.599 27.2467 15.9879 28.1809 15.8999 29.2303H10.3315C10.0206 29.229 9.76881 28.9772 9.76747 28.6661V23.2309C10.1579 23.1407 10.486 22.8779 10.6597 22.5167C10.8333 22.1555 10.8333 21.7351 10.6597 21.3739C10.4861 21.0126 10.1579 20.75 9.76747 20.6597V12.3192C9.76882 12.0082 10.0206 11.7563 10.3315 11.755H20.7272C20.8411 12.4016 21.254 12.9564 21.8407 13.2511C22.4273 13.5458 23.1187 13.5458 23.7054 13.2511C24.2921 12.9564 24.705 12.4016 24.8188 11.755H26.6805C26.9916 11.7564 27.2434 12.0081 27.2447 12.3192V14.9242C26.6557 15.0868 26.1682 15.5004 25.9113 16.0548C25.6544 16.6092 25.6544 17.2484 25.9113 17.8029C26.1681 18.3573 26.6557 18.7707 27.2447 18.9335L27.2448 18.9288Z" fill="white" style="fill:white;fill-opacity:1;"/>
<path d="M23.6543 15.9364C23.6543 15.6018 23.5214 15.281 23.2849 15.0443C23.0483 14.8079 22.7275 14.675 22.3929 14.675C22.0584 14.675 21.7377 14.8079 21.5011 15.0443C21.2645 15.2809 21.1316 15.6018 21.1316 15.9364C21.1316 16.2709 21.2645 16.5916 21.5011 16.8282C21.7377 17.0648 22.0584 17.1977 22.3929 17.1977C22.7273 17.197 23.0478 17.064 23.2843 16.8275C23.5205 16.5911 23.6538 16.2706 23.6543 15.9364L23.6543 15.9364ZM21.8844 15.9364H21.8846C21.8846 15.7307 22.0084 15.5452 22.1984 15.4665C22.3884 15.3879 22.6071 15.4314 22.7524 15.5768C22.8978 15.7222 22.9414 15.9409 22.8627 16.1309C22.784 16.3209 22.5986 16.4447 22.3929 16.4447C22.117 16.4381 21.8966 16.2125 21.8966 15.9363L21.8844 15.9364Z" fill="white" style="fill:white;fill-opacity:1;"/>
<path d="M17.6337 19.1948C17.2298 19.1948 16.8425 19.3553 16.5568 19.6408C16.2712 19.9264 16.1108 20.3138 16.1108 20.7176C16.1108 21.1215 16.2712 21.5088 16.5568 21.7943C16.8425 22.0801 17.2297 22.2405 17.6337 22.2405C18.0375 22.2405 18.4249 22.08 18.7105 21.7943C18.996 21.5087 19.1564 21.1215 19.1564 20.7176C19.1558 20.3139 18.9952 19.9269 18.7098 19.6415C18.4242 19.3561 18.0373 19.1955 17.6337 19.1948L17.6337 19.1948ZM17.6337 21.4875C17.4295 21.4875 17.2336 21.4064 17.0892 21.262C16.9448 21.1177 16.8638 20.9218 16.8638 20.7176C16.8638 20.5134 16.9448 20.3177 17.0892 20.1733C17.2336 20.0289 17.4295 19.9476 17.6337 19.9476C17.8379 19.9476 18.0336 20.0289 18.178 20.1733C18.3224 20.3177 18.4036 20.5134 18.4036 20.7176C18.4036 20.9217 18.3224 21.1176 18.178 21.262C18.0336 21.4064 17.8379 21.4875 17.6337 21.4875Z" fill="white" style="fill:white;fill-opacity:1;"/>
<path d="M23.4632 20.7011C22.9781 20.6997 22.5124 20.8914 22.1687 21.2335C21.8249 21.5758 21.6314 22.0406 21.6304 22.5256C21.6295 23.0108 21.8215 23.4762 22.164 23.8197C22.5067 24.1632 22.9716 24.3564 23.4568 24.3568C23.9418 24.3573 24.407 24.1649 24.7502 23.8219C25.0934 23.4791 25.2862 23.014 25.2862 22.529C25.2855 22.0452 25.0933 21.5814 24.7519 21.2388C24.4102 20.8963 23.9468 20.7029 23.4632 20.7011V20.7011ZM23.4632 23.6062C23.1781 23.6062 22.9047 23.4929 22.703 23.2915C22.5014 23.0898 22.3883 22.8164 22.3883 22.5313C22.3883 22.2463 22.5014 21.9729 22.703 21.7712C22.9047 21.5696 23.1781 21.4564 23.4632 21.4564C23.7482 21.4564 24.0216 21.5696 24.2233 21.7712C24.4248 21.9729 24.5381 22.2463 24.5381 22.5313C24.5374 22.8161 24.4239 23.0888 24.2224 23.2899C24.0208 23.4909 23.7477 23.6039 23.4632 23.6039L23.4632 23.6062Z" fill="white" style="fill:white;fill-opacity:1;"/>
<path d="M12.9149 23.9668C12.43 23.9668 11.9651 24.1595 11.6223 24.5022C11.2796 24.845 11.0869 25.3099 11.0869 25.7947C11.0869 26.2794 11.2796 26.7445 11.6223 27.0872C11.9651 27.43 12.4301 27.6227 12.9149 27.6227C13.3995 27.6227 13.8646 27.43 14.2073 27.0872C14.5501 26.7445 14.7428 26.2794 14.7428 25.7947C14.7421 25.3101 14.5493 24.8457 14.2067 24.503C13.864 24.1603 13.3994 23.9675 12.9149 23.9668H12.9149ZM12.9149 26.872C12.6298 26.872 12.3564 26.7589 12.1547 26.5572C11.9531 26.3556 11.84 26.0822 11.84 25.7971C11.84 25.512 11.9531 25.2386 12.1547 25.037C12.3564 24.8355 12.6298 24.7222 12.9149 24.7222C13.1999 24.7222 13.4733 24.8355 13.675 25.037C13.8765 25.2386 13.9898 25.512 13.9898 25.7971C13.9884 26.0813 13.8746 26.3536 13.6733 26.5542C13.4718 26.7547 13.1991 26.8673 12.9149 26.8673L12.9149 26.872Z" fill="white" style="fill:white;fill-opacity:1;"/>
</svg>
