<svg width="139" height="51" viewBox="0 0 139 51" fill="none" xmlns="http://www.w3.org/2000/svg">
<path d="M0.90918 38.1309H15.8063C16.1658 38.1309 16.4857 37.9027 16.6026 37.5628L20.6003 25.9445C20.877 25.1405 22.0352 25.2064 22.2189 26.0366L25.3942 40.3916C25.5747 41.2076 26.7052 41.2908 27.0032 40.51L41.2414 3.20529C41.5389 2.42598 42.6668 2.50696 42.8498 3.32076L52.9288 48.1268C53.0826 48.8108 53.956 49.0183 54.4011 48.4766L61.9783 39.254C62.3891 38.754 63.1869 38.885 63.4164 39.4901L66.3745 47.291C66.6671 48.0626 67.7798 47.9966 67.9791 47.1958L73.431 25.2872C73.6186 24.5332 74.6402 24.4139 74.9965 25.1043L83.4961 41.5723C83.8206 42.2009 84.7284 42.1737 85.0146 41.5268L92.6279 24.3176C92.8761 23.7564 93.622 23.6407 94.0287 24.1003L106.192 37.8468C106.351 38.0275 106.581 38.1309 106.822 38.1309H138.177" stroke="#D683AC" stroke-width="3.36853"/>
</svg>
