<svg width="39" height="39" viewBox="0 0 39 39" fill="none" xmlns="http://www.w3.org/2000/svg">
<circle cx="19.5" cy="19.5" r="19.5" fill="#E7DCF4" fill-opacity="0.5" style="fill:#E7DCF4;fill:color(display-p3 0.9059 0.8627 0.9569);fill-opacity:0.5;"/>
<path d="M22 15.5999C22.4243 15.5999 22.8313 15.4314 23.1315 15.1314C23.4315 14.8312 23.6 14.4242 23.6 13.9999C23.6 13.5757 23.4315 13.1687 23.1315 12.8685C22.8313 12.5685 22.4243 12.3999 22 12.3999C21.5758 12.3999 21.1688 12.5685 20.8686 12.8685C20.5686 13.1687 20.4 13.5757 20.4 13.9999C20.4006 14.4242 20.5693 14.8308 20.8691 15.1308C21.1691 15.4306 21.5758 15.5994 22 15.5999ZM22 13.1999C22.2122 13.1999 22.4157 13.2842 22.5657 13.4342C22.7157 13.5842 22.8 13.7878 22.8 13.9999C22.8 14.2121 22.7157 14.4156 22.5657 14.5656C22.4157 14.7156 22.2122 14.7999 22 14.7999C21.7879 14.7999 21.5843 14.7156 21.4343 14.5656C21.2843 14.4156 21.2 14.2121 21.2 13.9999C21.2002 13.7878 21.2847 13.5846 21.4347 13.4346C21.5847 13.2846 21.7879 13.2001 22 13.1999L22 13.1999Z" fill="white" style="fill:white;fill-opacity:1;"/>
<path d="M30.9084 23.4445C30.345 22.9679 29.3139 22.3999 27.6 22.3999C27.3314 22.3986 27.0632 22.425 26.8 22.4786V12.8C26.7989 11.8455 26.4193 10.9305 25.7444 10.2555C25.0694 9.58068 24.1544 9.20106 23.2 9.19997H20C18.8582 9.19943 17.7482 9.5755 16.8419 10.27C16.5341 9.94513 16.1989 9.64728 15.84 9.37994C15.073 8.80655 14.226 8.34854 13.3264 8.02049C13.2444 7.99317 13.1555 7.99317 13.0736 8.02049C12.1739 8.34853 11.327 8.80655 10.56 9.37994C8.88517 10.636 8 12.2335 8 13.9998C8 17.7561 9.05573 20.585 11.2275 22.6481C11.465 22.8747 11.5995 23.1882 11.6 23.5165V24.3179L10.4323 27.0425C10.3702 27.1874 10.3989 27.355 10.5056 27.4709C10.6123 27.5868 10.7772 27.6293 10.9264 27.5795L13.2 26.8217L15.4736 27.5795C15.6228 27.6293 15.7877 27.5868 15.8945 27.4709C16.0011 27.355 16.0298 27.1874 15.9677 27.0425L14.8 24.3179V23.5165C14.8005 23.1882 14.935 22.8745 15.1725 22.6481C15.5341 22.3047 15.8689 21.9341 16.1739 21.5397L16.8486 22.2143C17.0728 22.4399 17.1991 22.7447 17.2 23.0626V23.2001C17.2011 24.1545 17.5807 25.0695 18.2555 25.7445C18.9305 26.4194 19.8455 26.799 20.8 26.8001H20.8187C20.9487 28.1804 21.7441 28.8694 22.4211 29.2077C22.9139 29.4483 23.452 29.582 24 29.6001C24.548 29.582 25.0861 29.4483 25.5789 29.2077C25.8845 29.057 26.162 28.8547 26.3993 28.6101C26.786 28.7403 27.192 28.8044 27.6 28.8001C29.3139 28.8001 30.345 28.232 30.9084 27.7554C31.6022 27.1684 32 26.3827 32 25.6001C32 24.8174 31.6021 24.0317 30.9084 23.4447L30.9084 23.4445ZM20 9.99994H23.2C23.9423 10.0008 24.6541 10.296 25.1789 10.821C25.7039 11.3458 25.9991 12.0576 26 12.7999V22.7615C25.9654 22.7798 25.9311 22.7987 25.8973 22.8183C25.6891 22.6185 25.4545 22.4481 25.2 22.3119V12.7997C25.1995 12.2695 24.9886 11.7611 24.6136 11.3861C24.2386 11.0111 23.7302 10.8002 23.2 10.7997H20C19.1966 10.8009 18.4166 11.0699 17.7832 11.5642C17.6561 11.3279 17.5129 11.1009 17.3541 10.8847C18.1165 10.3099 19.0452 9.99917 20 9.99972L20 9.99994ZM19.0143 20.8484L17.5513 19.3854L17.5515 19.3855C17.5222 19.3561 17.4947 19.3252 17.4688 19.2929C18.0924 17.7813 18.4 16.0255 18.4 13.9996C18.4007 13.4303 18.3057 12.8648 18.1188 12.3271C18.6341 11.8601 19.3045 11.6008 20 11.5996H23.2C23.5182 11.6 23.8232 11.7266 24.0481 11.9516C24.2731 12.1764 24.3997 12.4814 24.4 12.7996V22.0348C24.2679 22.012 24.1341 22.0002 24 21.9998C23.2174 21.9998 22.4316 22.3977 21.8447 23.0914C21.5227 23.4791 21.2747 23.9225 21.1129 24.3998H20.8C20.4818 24.3995 20.1768 24.2729 19.952 24.0479C19.727 23.823 19.6004 23.518 19.6 23.1998V22.2623C19.6015 21.7318 19.3906 21.2227 19.0143 20.8484L19.0143 20.8484ZM11.023 10.0328C11.6918 9.53516 12.4241 9.12926 13.2005 8.82572C13.9702 9.12607 14.6966 9.52766 15.3602 10.02C16.7152 11.0362 17.4609 12.2391 17.5821 13.6H8.8182C8.93892 12.245 9.67891 11.0466 11.023 10.0328V10.0328ZM14.0002 14.4H15.6002V15.2C15.6002 15.4859 15.4477 15.75 15.2002 15.8928C14.9526 16.0357 14.6476 16.0357 14.4002 15.8928C14.1527 15.75 14.0002 15.4859 14.0002 15.2V14.4ZM8.80472 14.4H10.8002V20.9774C10.2742 20.2816 9.85308 19.5124 9.55059 18.6942C9.08326 17.4477 8.83864 16.0392 8.80472 14.3998V14.4ZM13.3267 26.0206C13.2447 25.9932 13.1558 25.9932 13.0738 26.0206L11.5188 26.539L12.264 24.8H14.1363L14.8815 26.539L13.3267 26.0206ZM14.6217 22.0681C14.2256 22.4457 14.0012 22.969 14.0002 23.5165V24H12.4002V23.5165C12.3993 22.9691 12.1749 22.4457 11.7786 22.0681C11.7181 22.0106 11.6586 21.9525 11.6002 21.8939V14.4H13.2002V15.2C13.2002 15.7716 13.5052 16.2998 14.0002 16.5857C14.4952 16.8714 15.1052 16.8714 15.6002 16.5857C16.0952 16.2998 16.4002 15.7716 16.4002 15.2V14.4H17.5958C17.5618 16.0393 17.3172 17.4479 16.8501 18.6943H16.8499C16.3785 19.9763 15.6158 21.1311 14.6219 22.0681L14.6217 22.0681ZM18.0002 23.2V23.0625C18.0017 22.532 17.7908 22.0229 17.4146 21.6486L16.6428 20.8768C16.8097 20.6179 16.9647 20.3498 17.1078 20.073L18.449 21.4143C18.6731 21.6398 18.7994 21.9447 18.8003 22.2625V23.2C18.8008 23.7302 19.0117 24.2386 19.3867 24.6136C19.7617 24.9886 20.2701 25.1995 20.8003 25.2H20.9038C20.8562 25.4645 20.8253 25.7317 20.8113 26H20.8003C20.058 25.9992 19.3461 25.704 18.8213 25.179C18.2964 24.6542 18.0012 23.9424 18.0003 23.2L18.0002 23.2ZM25.2437 28.481C24.8558 28.6726 24.4322 28.7811 24.0001 28.8001C23.9021 28.8001 21.6001 28.7727 21.6001 26.4001C21.6001 23.7774 23.0722 22.8001 24.0001 22.8001C24.928 22.8001 26.4001 23.7774 26.4001 26.4001C26.4001 27.3876 26.011 28.0877 25.2437 28.481V28.481ZM27.6001 28C27.358 28.0016 27.1165 27.9745 26.8808 27.919C27.0755 27.519 27.2001 27.0204 27.2001 26.4C27.2001 24.9971 26.8196 24.0518 26.4202 23.4461C26.7509 23.2829 27.1459 23.2 27.6001 23.2C30.2228 23.2 31.2001 24.6722 31.2001 25.6C31.2001 26.5279 30.2228 28 27.6001 28L27.6001 28Z" fill="white" style="fill:white;fill-opacity:1;"/>
<path d="M12.8 12.3999C13.1182 12.3999 13.4236 12.2735 13.6485 12.0485C13.8735 11.8235 14 11.5181 14 11.2C14 10.8818 13.8735 10.5764 13.6485 10.3514C13.4235 10.1264 13.1182 9.99998 12.8 9.99998C12.4818 9.99998 12.1764 10.1264 11.9515 10.3514C11.7265 10.5764 11.6 10.8818 11.6 11.2C11.6004 11.5182 11.727 11.8232 11.952 12.048C12.1768 12.273 12.4818 12.3996 12.8 12.4L12.8 12.3999ZM12.8 10.7999C12.9618 10.7999 13.1077 10.8974 13.1695 11.0469C13.2314 11.1964 13.1973 11.3683 13.0829 11.4828C12.9684 11.5973 12.7964 11.6314 12.647 11.5694C12.4975 11.5076 12.4 11.3617 12.4 11.1999C12.4002 10.979 12.5791 10.8001 12.8 10.7999Z" fill="white" style="fill:white;fill-opacity:1;"/>
</svg>
