<svg width="39" height="39" viewBox="0 0 39 39" fill="none" xmlns="http://www.w3.org/2000/svg">
<circle cx="19.5" cy="19.5" r="19.5" fill="#FFD4D3" fill-opacity="0.5" style="fill:#FFD4D3;fill:color(display-p3 1.0000 0.8314 0.8275);fill-opacity:0.5;"/>
<path fill-rule="evenodd" clip-rule="evenodd" d="M19.8378 9.283C19.4338 8.90567 18.8743 8.90567 18.4702 9.283C18.459 9.29352 16.1768 11.4259 14.3511 14.3735C13.0437 16.4846 12 19.008 12 21.4807C12 26.328 15.2058 30.2632 19.1542 30.2632C23.1025 30.2632 26.3083 26.3277 26.3083 21.4807C26.3083 19.0082 25.2646 16.4849 23.9572 14.3735C22.1315 11.4262 19.8501 9.29369 19.8381 9.283H19.8378ZM19.3818 10.0188H19.3822C19.3822 10.0188 21.591 12.0809 23.3577 14.9334C24.5645 16.8816 25.5551 19.1982 25.5551 21.4807C25.5551 25.8181 22.6872 29.3388 19.1542 29.3388C15.6213 29.3388 12.7533 25.8179 12.7533 21.4807C12.7533 19.1982 13.744 16.8819 14.9507 14.9334C16.7173 12.0808 18.9262 10.0188 18.9262 10.0188H18.9266C19.061 9.89309 19.2478 9.89309 19.3822 10.0188H19.3818Z" fill="white" style="fill:white;fill-opacity:1;"/>
<path fill-rule="evenodd" clip-rule="evenodd" d="M19.4803 26.8828C16.8495 26.8828 14.7137 24.5632 14.7137 21.7063C14.7137 21.4465 14.5195 21.2357 14.2803 21.2357C14.041 21.2357 13.8469 21.4465 13.8469 21.7063C13.8469 25.0828 16.3712 27.8238 19.4805 27.8238C19.7197 27.8238 19.9139 27.613 19.9139 27.3534C19.9139 27.0935 19.7197 26.8827 19.4805 26.8827L19.4803 26.8828Z" fill="white" style="fill:white;fill-opacity:1;"/>
</svg>
